<svg width="1024" height="1024" viewBox="0 0 1024 1024" fill="none" xmlns="http://www.w3.org/2000/svg">
<path d="M80 350.269C80 201.004 201.004 80 350.271 80H820.196C836.261 80 844.294 99.4342 832.918 110.777L655.97 287.207H422.343C347.71 287.207 287.208 347.708 287.208 422.341V655.967L110.777 832.914C99.4343 844.29 80 836.257 80 820.192V350.269Z" fill="#10B981"/>
<path d="M944 673.731C944 822.996 822.996 944 673.729 944H203.804C187.739 944 179.706 924.566 191.082 913.223L368.03 736.793H601.657C676.29 736.793 736.792 676.292 736.792 601.659V368.033L913.223 191.086C924.566 179.71 944 187.743 944 203.808V673.731Z" fill="#10B981"/>
<path d="M415.253 448.483C415.253 430.131 430.131 415.253 448.484 415.253H575.522C593.875 415.253 608.753 430.131 608.753 448.483V575.522C608.753 593.874 593.875 608.752 575.523 608.752H448.484C430.131 608.752 415.253 593.874 415.253 575.522V448.483Z" fill="#10B981"/>
</svg>
